PathFileType	4	(X/Y/Z)	26_2_11_p0_0-268.trc
DataRate	CameraRate	NumFrames	NumMarkers	Units	OrigDataRate	OrigDataStartFrame	OrigNumFrames
59.0	59.0	7	27	m	59.0	33	269
Frame#	Time	RHip			RKnee			RAnkle			RBigToe			RSmallToe			RHeel			LHip			LKnee			LAnkle			LBigToe			LSmallToe			LHeel			Neck			Head			Nose			RShoulder			RElbow			RWrist			RThumb			RIndex			RPinky			LShoulder			LElbow			LWrist			LThumb			LIndex			LPinky			
		X1	Y1	Z1	X2	Y2	Z2	X3	Y3	Z3	X4	Y4	Z4	X5	Y5	Z5	X6	Y6	Z6	X7	Y7	Z7	X8	Y8	Z8	X9	Y9	Z9	X10	Y10	Z10	X11	Y11	Z11	X12	Y12	Z12	X13	Y13	Z13	X14	Y14	Z14	X15	Y15	Z15	X16	Y16	Z16	X17	Y17	Z17	X18	Y18	Z18	X19	Y19	Z19	X20	Y20	Z20	X21	Y21	Z21	X22	Y22	Z22	X23	Y23	Z23	X24	Y24	Z24	X25	Y25	Z25	X26	Y26	Z26	X27	Y27	Z27	
33	0.559322033898305	0.2877002234043527	0.7594144242260892	0.8346693787493096	0.2630433691939171	0.9351152765169092	1.2417768333186823	0.25044492213187514	1.2442779904860155	1.6609083356581045	0.2330331182372701	0.992424271285739	1.7062941593760494	0.27741220692700036	1.042766825997635	1.7139559728860811	0.25021920263624814	1.3075562858190277	1.6884291522743669	0.06970539540952053	0.7913761851539591	0.8390826134931748	0.0816788113601066	0.98043911882248	1.2285506930685448	0.0758245776280591	1.1878209618529865	1.641796194384291	0.07988851385692812	1.046140960712955	1.700882861600261	0.030977072451774366	1.0620989736036408	1.6846037217137946	0.10382749273429923	1.2812475902455385	1.6793306306243903	0.18359747317964864	0.522121159087769	0.3118734367602495	0.18358271291493844	0.3600383573686705	0.10482468852849383	0.16426982729815587	0.3413413947343792	0.25275241728589465	0.34025395182605334	0.5081878284780782	0.4229939122998169	0.3887518581335584	0.6172176292008413	0.6854435642318264	0.24686149893702514	0.664304256144892	0.8916616760998818	0.16625566763445468	0.651022515190344	0.9665248753095704	0.16571784487664956	0.6614754674814262	0.9809979209186832	0.16688084273293163	0.6636189648571038	0.9811291865010631	0.002908987519963196	0.5464172326113157	0.4029446881794565	-0.01329384749173797	0.6530216950319436	0.6574355259201007	0.09104249411401902	0.6314688503493572	0.8906281021862835	0.1786753198868861	0.612377778785236	0.9426130813948469	0.18359763753489314	0.6282405114408256	0.9692949960474869	0.15796434469375367	0.693957967796173	0.9933314683089478
34	0.576271186440678	0.2869960525557565	0.7561899642846457	0.8308365765803585	0.2630699392830598	0.9351449141358442	1.2418962110866323	0.2469011165925194	1.2319487162936313	1.6631451885406996	0.23289287078433102	0.9982978362238504	1.7149851226799993	0.27745320281198604	1.042437292308355	1.713967931952872	0.24904383136765063	1.3100926276037046	1.6935498397898148	0.06973421190448523	0.7914125933856427	0.8390830484710368	0.08162167062683905	0.9803267861904633	1.2284782246654027	0.07575400030988128	1.1879736014531972	1.641847475297695	0.0828884965254603	1.0311021510789657	1.7020330464995237	0.029860069375728025	1.0639997426774384	1.6888643477731555	0.10776415015551731	1.2593664588366642	1.6761392809744355	0.18360423164635284	0.5221023563060002	0.31187815840570415	0.18358015047325021	0.36001169188410936	0.10480640875986325	0.16427041304337406	0.3413763233715411	0.2527198013841392	0.3402228193835645	0.5081795572206426	0.4230026669949768	0.3886837913277518	0.6173365370226835	0.6853957329901414	0.24688292265654443	0.6640921078297851	0.8917514360857849	0.16617756090919272	0.6507225738131597	0.9664989603901404	0.1656608322781246	0.6612921340081306	0.9810697550225709	0.16688447467170597	0.6635997989362895	0.9812406146447575	0.002962319187810222	0.5469197179535182	0.406513613437791	-0.012868085484636827	0.6518709524270179	0.6544261814718688	0.09103125961884817	0.6314965970793774	0.8906230232847163	0.17863450021825603	0.6122862350816746	0.9425954979631596	0.18355941577428556	0.6282201800240297	0.9693167881712413	0.15797269413667286	0.6940963090868177	0.9934603971819169
35	0.5932203389830508	0.28778488468091745	0.759623152007794	0.838118409846674	0.26225471097674613	0.9315929075571235	1.2379962528258872	0.2504406859271528	1.244552633061736	1.6611106191185674	0.23291945156654956	0.992722734680301	1.7063588018591285	0.27749393544222856	1.0433615029325782	1.7140737627191243	0.25018969225865123	1.307537918429999	1.6885282194751978	0.06975120776598814	0.7914814410132909	0.8391116274691359	0.08162691490712333	0.9803214719231753	1.228458516882657	0.07578663431753369	1.1879404773081803	1.641853047267594	0.08286243540728064	1.0311466649624326	1.7021070685124209	0.029825082988827408	1.0643511886059247	1.688924773464063	0.10768629002019157	1.2593612651271966	1.6761350766666925	0.18360499059376661	0.5221050095763919	0.3118789020276199	0.18355270146945174	0.35998102874239707	0.10485037661736013	0.1644606085057319	0.3434493851106993	0.2552618145404519	0.34021647239341596	0.5081397287366743	0.4230063239482814	0.39310801154154806	0.6297214706218717	0.6833525927733988	0.24689126860067973	0.6640882014868564	0.8917305455314425	0.1694946387982778	0.6380128687487224	0.967463657256915	0.1657195087068831	0.6614016198121778	0.9812073825517307	0.16692413683107385	0.6637642660167784	0.9813705284362725	0.0029059013570433894	0.5463806933893622	0.40296417109433524	-0.012897837976223443	0.6520610955535643	0.6543632342438421	0.09101158412354239	0.6315665028798432	0.8906478153913603	0.18256694573071208	0.6144742704101491	0.9425882159382134	0.18734337186685324	0.6270221092152749	0.9660342122798341	0.15792698797116847	0.6942138203642495	0.9935320986163424
36	0.6101694915254238	0.28762123799944345	0.7595316782273865	0.8347540936807123	0.2623425259963827	0.9316390877461834	1.2381405952696694	0.2504991331793732	1.2446003028471562	1.6609013586091592	0.2333448740634856	0.9937697980034257	1.7068100915948132	0.28240671518389643	1.0463622057911242	1.714673783567139	0.24647561787308422	1.3278504551663435	1.6911108404787676	0.0697247293592335	0.79150261423042	0.8393264189062072	0.08153171592581972	0.9803287778696707	1.2280994393916278	0.07577700046653599	1.18771823129023	1.6416684118988558	0.07887972155771306	1.0487217995395122	1.7048327760285442	0.03130615360924642	1.0623437959920232	1.6847993232324254	0.10243893737593325	1.255669232790416	1.6751427935851055	0.18358863033186346	0.5219513594446062	0.3118676475260843	0.19146211018968898	0.3712112177779877	0.10029171470208655	0.16437231818237114	0.34115466069496597	0.25282295321798975	0.3402083295065256	0.5081341931263429	0.42296232725504235	0.3863158660824575	0.6318949647319558	0.6830282861199315	0.24697256117737412	0.6641864324762845	0.8915694460078689	0.1701913979580392	0.6413430203991453	0.97145022511071	0.16643684961759558	0.6644046099750154	0.9854244200493897	0.16707497225824597	0.6633159610099444	0.9814240806879768	0.007267788892316794	0.5366827515864592	0.40969020398912365	-0.013225267638703008	0.653493420042852	0.6613833706464608	0.09099347452613557	0.6313832443760387	0.8906610155799528	0.18252893365563785	0.61445403469021	0.9425064247876332	0.18804037643791643	0.6297795712467935	0.9693047774413353	0.1581755481129511	0.6939988785838501	0.9972693820128812
37	0.6271186440677966	0.2876162527224478	0.7595829210606506	0.8348572069468394	0.2631475174391584	0.9350902506159664	1.2420599641635564	0.25053863304729607	1.244195125990199	1.6608114189990297	0.23319251898188095	0.9934476237294388	1.70661146540485	0.2775422243450071	1.0441552853618206	1.7141460697233486	0.24641037658985732	1.327702459640755	1.691460975456736	0.07019989374197617	0.7948693841252826	0.8430471090039409	0.0815381990886847	0.9802679818835974	1.2281927937894985	0.07690303605701111	1.1853245876587568	1.6371838495401978	0.07883916583941522	1.048669729926694	1.7048824934905749	0.029984362878995086	1.0644674588703635	1.6889093314849868	0.09814568966599259	1.2753644886582873	1.677948871841956	0.18361193241046408	0.5219754250569274	0.31186106593269586	0.19150993375586214	0.3712475487457427	0.10032589101300635	0.16437560371461427	0.34119358608743927	0.25279662412517134	0.34020754052201174	0.5081274222370722	0.42295924745067565	0.3888313407581518	0.6178266572132497	0.6852042079646089	0.24703027044084713	0.6641829162923734	0.891552168681585	0.16689827903338658	0.6546474231267622	0.9706909284000254	0.16643378972848466	0.6646956901376005	0.9853784989622137	0.16708682930573954	0.6633928501700099	0.9812871468227403	0.003034011633637786	0.5490369359878725	0.40646199143212797	-0.013185997472772852	0.653459343214303	0.6614606537881541	0.09103601521154495	0.6313822834567363	0.8906094591670415	0.1825326940307279	0.6146742547294376	0.9424603823894498	0.18803894129091836	0.6301988027179827	0.9692488823903734	0.15825999566672194	0.6942313155948228	0.9971953146228646
38	0.6440677966101694	0.2877752538205703	0.7598760563178916	0.8382605576389122	0.26228322187481945	0.9315029515874437	1.2378869572507594	0.2471029464906686	1.2315819274548443	1.6628812473247931	0.233275883863836	0.9939030404019168	1.7068723099962448	0.27761322940243305	1.0442760178924753	1.7142098358553415	0.2501778877340067	1.3073519688549669	1.6887997855805423	0.06969772923449226	0.7914892384993756	0.8392563175371418	0.08592283473398425	0.9643041008472234	1.2278158284649228	0.07577009733002715	1.187719517550503	1.641692572834514	0.07883801889563123	1.048463465338293	1.7050917007689481	0.03136701483521716	1.062797589534703	1.6849310151389034	0.10230227597239477	1.2545517997583393	1.6749754551662737	0.18355282000617654	0.5219784736925928	0.3119180430458688	0.18766973496721087	0.3599364355964055	0.10484766264047829	0.16435555122125814	0.341165468431965	0.2528099089150117	0.34022065342988095	0.5081542597459119	0.4229640135852801	0.3932755886057972	0.6301675512255224	0.6831724591548023	0.2475254051239381	0.6629630472715492	0.8886005481350497	0.16680622753861168	0.6548758829668395	0.9706873153253879	0.16633618743337128	0.6647897844151174	0.9854214549667664	0.16709738758882237	0.6632822305053054	0.9814478137039069	0.0029977159609748004	0.5489659425900172	0.4064639864275053	-0.01693604432932396	0.6520003589714791	0.6584870601825732	0.09098398556149881	0.6313536116924777	0.890610378600365	0.17907236633699408	0.6278265595454263	0.9415232962485878	0.18414068294165178	0.6447381226852786	0.9722125020461975	0.1582393322182976	0.693773414370475	0.997023915541353
39	0.6610169491525424	0.28780120575999063	0.7597345916991864	0.8382803787099692	0.2578146885227989	0.9170703119934991	1.2375525022329443	0.2504541037687685	1.2444275591162677	1.6609881975653564	0.22896139737453747	0.9788840935948249	1.704258201479554	0.27737806546847216	1.0435521455440862	1.7140349795880347	0.25016571669231913	1.3075505505667826	1.6882903259942534	0.07021783867124867	0.7947094938756754	0.8429685481634395	0.08160507346593877	0.9802648638851313	1.228151640238736	0.07569135628033541	1.1880148603559009	1.6416820814072437	0.08289124624164167	1.0310460175226102	1.7023581256078832	0.03024962725890298	1.0649184348785443	1.6892471062690138	0.09787131792393895	1.2772772211441876	1.6732917015409987	0.18355242478535683	0.5219715558483708	0.31191091269500415	0.18758161211755414	0.35989395079580716	0.10500653759228412	0.164555523132464	0.34318604666976765	0.2553416501145158	0.34022391806292523	0.5081809343784545	0.4229902881739916	0.3933746116609748	0.6299486215056889	0.6832585848855177	0.24702044755834907	0.6644237955913206	0.891592842033007	0.16692791818760452	0.6500940368541251	0.9636723109318913	0.166394902692084	0.6647053828277332	0.9848176119083173	0.16703929970999945	0.6632386010199067	0.9811839345213493	0.002855463712410503	0.5462768343318689	0.40299666177126675	-0.016918773361792434	0.651871679911629	0.658584871465027	0.09097961045194032	0.6316700287247478	0.8906819264034732	0.1825672986696276	0.6147361408307149	0.9424752083475941	0.18816999206484009	0.6302402084201093	0.9691780965624948	0.16191152397557187	0.679678527724617	0.9980848317405069
